<svg width="25" height="25" viewBox="0 0 25 25" fill="none" xmlns="http://www.w3.org/2000/svg">
<path d="M12.4998 17.6111C15.3225 17.6111 17.6109 15.3228 17.6109 12.5C17.6109 9.67724 15.3225 7.38892 12.4998 7.38892C9.67699 7.38892 7.38867 9.67724 7.38867 12.5C7.38867 15.3228 9.67699 17.6111 12.4998 17.6111Z" stroke="white" stroke-width="2" stroke-linecap="round" stroke-linejoin="round"/>
<path d="M1 17.6111V7.38889C1 3.86041 3.86041 1 7.38889 1H17.6111C21.1396 1 24 3.86041 24 7.38889V17.6111C24 21.1396 21.1396 24 17.6111 24H7.38889C3.86041 24 1 21.1396 1 17.6111Z" stroke="white" stroke-width="2"/>
<path d="M19.5273 5.48575L19.5409 5.4707" stroke="white" stroke-width="2" stroke-linecap="round" stroke-linejoin="round"/>
</svg>
